# Created by me :)
# Dimensions 	:
# 	Faces       : 6
# 	Base radius : 1
# 	Top radius  : 1
# 	Height      : 1

o Figure
v 0.5000000000000001 0.8660254037844386 0
v -0.4999999999999998 0.8660254037844387 0
v -1 1.2246467991473532e-16 0
v -0.5000000000000004 -0.8660254037844384 0
v 0.49999999999999933 -0.866025403784439 0
v 1 -2.4492935982947064e-16 0

v 0.5000000000000001 0.8660254037844386 1
v -0.4999999999999998 0.8660254037844387 1
v -1 1.2246467991473532e-16 1
v -0.5000000000000004 -0.8660254037844384 1
v 0.49999999999999933 -0.866025403784439 1
v 1 -2.4492935982947064e-16 1
v 0 0 0
v 0 0 1

# Side Faces
f 8 7 1
f 1 2 8

f 9 8 2
f 2 3 9

f 10 9 3
f 3 4 10

f 11 10 4
f 4 5 11

f 12 11 5
f 5 6 12

f 7 12 6
f 6 1 7

# Top bottom faces
f 1 13 2
f 8 14 7

f 2 13 3
f 9 14 8

f 3 13 4
f 10 14 9

f 4 13 5
f 11 14 10

f 5 13 6
f 12 14 11

f 6 13 1
f 7 14 12
