# Created by me :)
# Faces: 6
# Dimensions: (x1 = 1, x2 = 1, y = 1)

o Figure
v 0.5000000000000001 0.8660254037844386 0
v -0.4999999999999998 0.8660254037844387 0
v -1 1.2246467991473532e-16 0
v -0.5000000000000004 -0.8660254037844384 0
v 0.49999999999999933 -0.866025403784439 0
v 1 -2.4492935982947064e-16 0

v 0.5000000000000001 0.8660254037844386 1
v -0.4999999999999998 0.8660254037844387 1
v -1 1.2246467991473532e-16 1
v -0.5000000000000004 -0.8660254037844384 1
v 0.49999999999999933 -0.866025403784439 1
v 1 -2.4492935982947064e-16 1
v 0 0 0
v 0 0 1

f 8 7 1
f 1 2 8

f 9 8 2
f 2 3 9

f 10 9 3
f 3 4 10

f 11 10 4
f 4 5 11

f 12 11 5
f 5 6 12

f 7 12 6
f 6 1 7

f 1 6 2
f 8 7 7
f 2 6 3
f 9 7 8
f 3 6 4
f 10 7 9
f 4 6 5
f 11 7 10
f 5 6 6
f 12 7 11